<?xml version="1.0" encoding="UTF-8"?>
<svg width="118px" height="106px" viewBox="0 0 118 106" version="1.1" xmlns="http://www.w3.org/2000/svg" xmlns:xlink="http://www.w3.org/1999/xlink">
    <!-- Generator: Sketch 47.1 (45422) - http://www.bohemiancoding.com/sketch -->
    <title>logo的副本</title>
    <desc>Created with Sketch.</desc>
    <defs></defs>
    <g id="Page-1" stroke="none" stroke-width="1" fill="none" fill-rule="evenodd">
        <g id="登录2" transform="translate(-453.000000, -96.000000)" fill="#C3A571">
            <g id="logo的副本" transform="translate(453.000000, 96.000000)">
                <path d="M50.2545367,46.0336305 C50.4621657,45.8873181 50.6696778,45.9000426 51.0313255,46.0336305 L51.8081143,46.0336305 L52.5849031,46.0336305 L52.5849031,46.0336305 C53.192445,46.2072881 53.7727412,46.283317 54.526875,46.4234727 L55.3036638,46.4234727 C55.479793,46.6616585 55.7676793,46.7135453 56.0804526,46.8133148 L56.8572414,47.203157 C57.1665787,47.1140469 57.4515699,47.1787252 57.6340302,47.203157 L59.1876078,47.9828413 C59.6321593,47.9177521 59.8907323,48.0116167 59.9643966,47.9828413 L61.1295798,48.3726834 C61.9917052,48.6600221 63.0616434,48.9162135 64.236735,49.1523677 C65.2230525,49.3014013 66.3136186,49.4361627 67.3438901,49.5422099 C68.292567,49.5516445 69.1787726,49.5561362 70.0626509,49.5422099 L70.0626509,40.5758404 L58.410819,45.6437884 C56.6985517,46.3486413 54.0637894,47.0820393 54.1384806,44.4742619 L54.1384806,40.5758404 C54.2058906,40.1555618 54.7524468,39.4821882 55.3036638,39.0164718 L57.2456358,38.6266297 L57.2456358,37.0672611 C57.1381947,36.8579786 57.1111916,36.6041041 57.2456358,36.2875768 L57.2456358,35.5078925 L50.2545367,39.0164718 L50.2545367,46.0336305 L50.2545367,46.0336305 Z M50.2545367,47.5929991 L50.2545367,55 L48.7009591,55 L48.7009591,47.5929991 L47.5357759,47.203157 L46.7589871,47.5929991 L46.3705927,47.5929991 L45.9821983,47.5929991 L45.5938039,47.5929991 L44.8170151,47.5929991 L44.4286207,47.5929991 C44.4094021,47.5522041 44.2737898,47.5761393 44.0402263,47.5929991 C43.5926549,47.6747795 43.0408036,47.7262757 42.4866487,47.9828413 L41.7098599,47.9828413 C41.418339,48.06499 41.1534432,48.1442285 40.9330711,48.3726834 C38.7368335,48.7522096 36.6581694,49.5908353 34.7187608,50.7117363 C34.5406298,50.7163166 34.3820539,50.6675403 34.3303664,50.7117363 C34.2525895,50.4223897 34.2878487,50.2796872 34.3303664,50.3218942 C38.1115707,47.4936366 42.7261832,45.9572741 47.5357759,45.6437884 C47.8441497,45.7453949 48.2964037,45.739272 48.7009591,45.6437884 L48.7009591,39.7961561 L33.5535776,47.9828413 C32.6808136,48.2233794 32,47.8810403 32,47.203157 L32,43.3047355 C32,42.3699794 32.6782626,41.3536656 33.5535776,40.9656826 L44.0402263,35.5078925 L44.0402263,33.9485239 L38.2143104,37.0672611 C36.406832,37.7024006 35.0452048,38.2622263 35.1071552,37.4571032 L35.1071552,34.338366 C35.0452048,33.4796993 36.013086,32.4853159 37.4375216,31.609471 L37.4375216,29.2704181 L37.4375216,29.2704181 C35.6455308,30.0408644 34.2839036,29.8192919 34.3303664,28.8805759 L34.3303664,25.3719966 C34.2839036,24.4674862 35.6404287,23.125522 37.4375216,22.2532594 L40.5446767,21.0837329 L40.5446767,18.74468 C40.3743132,17.8805806 41.1239718,16.9124507 42.0982543,16.4056271 L44.0402263,15.2361007 L44.0402263,13.6767321 L41.7098599,14.8462585 C41.0551268,15.3954218 40.3743132,15.0530825 40.5446767,14.0665742 L40.5446767,11.3376792 C40.3743132,10.3054626 41.0525758,9.28914855 41.7098599,8.99862629 L45.5938039,7.04941554 L45.5938039,3.54083619 C45.7034216,3.57264684 46.0096489,2.5774675 46.3705927,2.37130974 L51.0313255,0.0322568362 C51.5721491,-0.0870215767 51.8785854,0.142755831 51.8081143,0.422098986 L51.8081143,3.93067834 L53.3616918,3.15099404 C54.1582224,2.84794146 54.839036,3.1902808 54.9152694,3.93067834 L54.9152694,7.04941554 C54.839036,7.93790065 54.1607734,8.95421469 53.3616918,9.38846844 L52.5849031,9.77831059 C52.6387206,9.72690401 52.6398866,9.75110405 52.5849031,9.77831059 L52.5849031,11.3376792 L54.526875,10.1681527 C55.6091602,9.73729935 56.3616384,9.95610173 56.468847,10.5579949 L56.468847,13.2868899 C56.3616384,13.4941137 56.3398263,13.6264365 56.468847,13.6767321 L60.352791,12.1173635 C61.851722,11.1805516 63.2133492,11.3539134 63.0715518,12.5072056 L63.0715518,16.7954693 C63.2133492,18.0096612 62.6181252,18.7317953 60.7411854,19.5243643 L60.352791,19.9142065 L60.352791,20.3040486 L60.352791,20.3040486 C61.851722,19.6029836 63.2133492,19.7622954 63.0715518,20.6938908 L63.0715518,22.6431015 L65.4019182,21.4735751 L65.4019182,16.4056271 C65.5994224,16.0565265 65.9923917,15.5116767 66.5671014,15.2361007 L66.9554958,15.2361007 L66.9554958,10.5579949 C67.0198552,10.2977772 67.3596326,9.84511148 67.7322845,9.77831059 L73.1698061,7.82909984 C73.5315566,7.8129139 73.871566,8.04682722 73.9465949,8.60878414 L73.9465949,12.5072056 L74.7233837,12.5072056 C75.2811305,12.1259655 75.6724192,12.2788004 75.5001725,12.5072056 L75.8885669,17.5751536 L80.9376941,15.2361007 C81.3715403,15.179729 81.7628286,15.3325639 81.7144828,15.6259428 L81.7144828,21.0837329 C81.8734752,21.3683972 81.4900903,21.8932786 80.9376941,22.2532594 L76.2769613,24.2024701 L76.2769613,26.541523 L80.5492997,24.5923123 C80.9492562,24.3350045 81.3737083,24.4954153 81.3260884,24.9821544 L81.3260884,28.1008916 L84.0448492,26.9313652 C84.6050142,26.601751 85.1488405,26.791856 85.2100324,27.3212073 L85.2100324,32.7789974 C85.3026206,33.3499678 84.7697792,34.0028462 84.0448492,34.338366 L71.6162285,39.7961561 L71.6162285,49.1523677 C72.3822269,49.2453997 73.1734054,49.1223998 73.9465949,48.7625256 C75.030279,48.7231979 76.088416,48.4138582 77.0537501,47.9828413 C78.1652719,47.6680707 79.174046,47.2085945 80.1609053,46.8133148 C82.1222554,45.6560942 83.9434371,44.3340572 85.5984268,42.9148933 C85.7235737,42.7605237 85.8568353,42.7688643 85.9868212,42.9148933 C86.0052855,42.9376777 86.0034771,43.0578956 85.9868212,43.3047355 C84.4216963,44.8593543 82.6567486,46.38248 80.5492997,47.5929991 C78.7265255,48.8559271 76.5650478,49.8098755 74.3349893,50.3218942 C73.4072561,50.6297331 72.5016866,50.8164764 71.6162285,51.1015785 L71.6162285,53.4406314 L70.0626509,53.4406314 L70.0626509,51.1015785 C69.1580643,51.1785922 68.2474106,51.1981432 67.3438901,51.1015785 C66.1670262,51.1377145 64.9980489,51.0260185 63.8483406,50.7117363 C62.6875783,50.644512 61.5444577,50.3837672 60.352791,49.932052 L59.5760022,49.932052 C59.3081218,49.7005369 59.0331003,49.6022588 58.7992134,49.5422099 L57.2456358,49.1523677 C56.6541004,48.7998982 56.1187033,48.6644487 55.6920582,48.3726834 C55.3261855,48.4214738 55.0553227,48.3694337 54.9152694,48.3726834 L54.1384806,47.9828413 C53.7158356,48.0408736 53.4429839,48.0037021 53.3616918,47.9828413 L52.1965087,47.9828413 L52.1965087,47.5929991 L51.8081143,47.5929991 L51.4197199,47.5929991 L50.6429311,47.5929991 C50.5743649,47.5472699 50.4228593,47.5330087 50.2545367,47.5929991 L50.2545367,47.5929991 Z" id="正常" fill-rule="nonzero"></path>
                <g id="Group-2" transform="translate(0.000000, 67.000000)">
                    <path d="M3.13829781,9.48979592 L3.13829781,14.6938775 L0,14.6938775 L0,0.306122462 L6.27659563,0.306122462 C9.48902253,0.306122462 11.4937453,2.06096992 11.6117022,4.89795919 C11.4937453,6.75718104 10.5068047,8.35249692 8.78723419,8.87755104 L11.925532,14.6938775 L8.47340437,14.6938775 L5.64893599,9.48979592 L3.13829781,9.48979592 Z M3.13829781,2.75510204 L3.13829781,7.04081631 L5.64893599,7.04081631 C7.27638532,7.04081631 8.15957455,6.24931054 8.15957455,4.89795919 C8.15957455,3.58521788 7.22676809,2.75510204 5.64893599,2.75510204 L3.13829781,2.75510204 Z M23.851064,12.244898 L23.851064,14.6938775 L13.8085105,14.6938775 L13.8085105,0.306122462 L23.851064,0.306122462 L23.851064,2.75510204 L16.9468084,2.75510204 L16.9468084,6.12244896 L23.5372342,6.12244896 L23.5372342,8.57142858 L16.9468084,8.57142858 L16.9468084,12.244898 L23.851064,12.244898 Z M29.5,14.6938775 L26.3617022,14.6938775 L26.3617022,0.306122462 L29.5,0.306122462 L29.5,14.6938775 Z M43.6223404,8.87755104 C43.6223404,12.6268952 41.4198774,15 37.9734044,15 C34.0514744,15 31.6968084,12.1522742 31.6968084,7.34693877 C31.6968084,2.88727754 34.0693806,0 37.9734044,0 C40.8826912,0 43.1299197,1.94792354 43.6223404,4.89795919 L40.7978724,4.89795919 C40.4171299,3.47066577 39.3338044,2.63019115 37.9734044,2.75510204 C35.7436105,2.63019115 34.4633172,4.45945946 34.5212767,7.34693877 C34.4633172,10.5108767 35.8062822,12.3698088 37.9734044,12.244898 C39.7098347,12.3698088 40.9364099,11.2129202 41.1117022,9.48979592 L41.1117022,9.18367346 L38.2872342,9.18367346 L38.2872342,7.04081631 L43.6223404,7.04081631 L43.6223404,8.87755104 Z M48.9574469,14.6938775 L46.1329785,14.6938775 L46.1329785,0.306122462 L48.6436171,0.306122462 L54.9202127,9.18367346 L55.2340425,9.18367346 L55.2340425,0.306122462 L58.0585105,0.306122462 L58.0585105,14.6938775 L55.5478724,14.6938775 L49.2712767,5.81632654 L48.9574469,5.81632654 L48.9574469,14.6938775 Z M68.7287233,5.20408162 L66.2180851,14.6938775 L63.7074469,14.6938775 L60.2553193,0.306122462 L63.0797873,0.306122462 L65.2765956,10.4081633 L67.7872342,0.306122462 L69.9840425,0.306122462 L72.4946807,10.4081633 L74.6914895,0.306122462 L77.5159575,0.306122462 L74.0638298,14.6938775 L71.5531916,14.6938775 L69.0425531,5.20408162 L68.7287233,5.20408162 Z M84.4202127,0 C88.0889464,0 90.3829785,2.87738958 90.3829785,7.34693877 C90.3829785,12.1226104 88.0975381,15 84.4202127,15 C80.7514794,15 78.4574469,12.1226104 78.4574469,7.34693877 C78.4574469,2.86750165 80.7858468,0 84.4202127,0 Z M84.7340425,2.75510204 C82.5811945,2.75510204 81.2819149,4.65076608 81.2819149,7.65306123 C81.2819149,10.6355065 82.5555509,12.5510204 84.7340425,12.5510204 C86.5901563,12.5510204 87.8723404,10.6355065 87.8723404,7.65306123 C87.8723404,4.65076608 86.5901563,2.75510204 84.7340425,2.75510204 Z M98.2287233,0 C101.897457,0 104.191489,2.87738958 104.191489,7.34693877 C104.191489,12.1226104 101.906049,15 98.2287233,15 C94.55999,15 92.2659575,12.1226104 92.2659575,7.34693877 C92.2659575,2.86750165 94.5943574,0 98.2287233,0 Z M98.5425531,2.75510204 C96.3897054,2.75510204 95.0904254,4.65076608 95.0904254,7.65306123 C95.0904254,10.6355065 96.3640618,12.5510204 98.5425531,12.5510204 C100.398667,12.5510204 101.680851,10.6355065 101.680851,7.65306123 C101.680851,4.65076608 100.398667,2.75510204 98.5425531,2.75510204 Z M106.074468,0.306122462 L111.409575,0.306122462 C115.624472,0.306122462 118,2.89671546 118,7.34693877 C118,12.0733931 115.653209,14.6938775 111.409575,14.6938775 L106.074468,14.6938775 L106.074468,0.306122462 Z M109.212766,2.75510204 L109.212766,11.9387755 L111.409575,11.9387755 C113.767004,11.9387755 115.175532,10.3157987 115.175532,7.34693877 C115.175532,4.40776742 113.720054,2.75510204 111.409575,2.75510204 L109.212766,2.75510204 Z" id="Combined-Shape" fill-rule="nonzero"></path>
                    <g id="华彬集团" transform="translate(19.000000, 20.000000)">
                        <path d="M3.77446623,5.90073479 C3.06717533,6.40919067 2.32929156,6.88084332 1.56079279,7.31570691 C0.792294024,7.75057049 0.367245771,7.98472429 0.285635282,8.01817533 C0.204024794,8.05162638 0.136017073,8.06835165 0.0816100806,8.06835165 C0.0272030882,8.06835165 0,8.04493627 0,7.99810481 C0,7.95127334 0.0748084925,7.86764699 0.224427722,7.74722322 C1.40777981,6.74369188 2.43809677,5.5863031 3.31540953,4.27502214 C4.19272228,2.96374119 4.83539524,1.60564914 5.24344768,0.200705265 C5.99154383,0.468313623 6.6784218,0.752643238 7.30410222,1.05370264 C7.92978263,1.35476204 8.28002239,1.53874003 8.35483201,1.60564212 C8.42964162,1.67254421 8.46704587,1.73944529 8.46704587,1.80634738 C8.46704587,1.9669124 8.33443081,2.05053876 8.06919672,2.05722897 C7.80396263,2.06391917 7.46052365,2.32817846 7.03886946,2.85001476 C6.61721526,3.37185106 6.18196585,3.84684877 5.73310816,4.27502214 C6.31798333,4.42220674 6.61041653,4.55600891 6.61041653,4.67643267 C6.61041653,4.79685643 6.48800263,4.89720806 6.24317117,4.97749057 L6.24317117,7.62680007 C7.37211626,7.22538753 8.603056,6.69686895 9.93602732,6.04122847 L9.93602732,2.58909792 C9.93602732,1.6792295 9.915625,0.929937338 9.87481976,0.34119895 C11.2077911,0.475003129 12.0544872,0.598770138 12.4149335,0.71250369 C12.7753798,0.826237242 12.9556003,0.950004251 12.9556003,1.08380843 C12.9556003,1.21761261 12.7447764,1.35810489 12.3231222,1.50528949 L12.3231222,4.61622109 C13.900925,3.55916808 15.1998724,2.43522983 16.2200035,1.24437264 C16.9953032,1.77958936 17.6039723,2.24455191 18.0460291,2.63927423 C18.4880859,3.03399656 18.709111,3.2949108 18.709111,3.42202477 C18.709111,3.54913874 18.5254901,3.63276509 18.1582429,3.67290635 C18.0222255,3.68628677 17.648183,3.84015926 17.0361043,4.13452846 C14.6830019,5.21834231 13.1120236,5.90742349 12.3231222,6.20179268 L12.3231222,8.18877481 C12.3231222,8.49652442 12.4319345,8.71060789 12.6495625,8.83103165 C12.8671905,8.95145542 13.3432445,9.01166639 14.0777389,9.01166639 C15.1794805,9.01166639 15.9207647,8.86782906 16.3016136,8.58015007 C16.6824626,8.29247109 17.0497042,7.486313 17.4033497,6.16165163 C17.4441549,6.01446704 17.5019615,5.94087584 17.5767711,5.94087584 C17.6515807,5.94087584 17.688985,6.01446704 17.688985,6.16165163 C17.688985,6.83067253 17.7637935,7.36588121 17.9134127,7.76729375 C18.0630319,8.16870629 18.3146605,8.44969085 18.6683059,8.61025586 C19.0219514,8.77082088 19.1987715,9.01166479 19.1987715,9.33279482 C19.1987715,9.65392485 18.9947483,9.98508522 18.5866959,10.3262859 C18.1786434,10.6674865 17.26734,10.8614997 15.8527582,10.9083311 C14.4381764,10.9551626 13.6492868,10.978578 13.4860658,10.978578 C12.3843242,10.978578 11.6090362,10.9217121 11.1601785,10.8079785 C10.7113208,10.694245 10.3950849,10.4734714 10.2114613,10.1456511 C10.0278377,9.8178309 9.93602732,9.3127277 9.93602732,8.63032639 L9.93602732,7.0447548 C8.71186999,7.40602608 7.48093025,7.67363042 6.24317117,7.84757586 L6.24317117,11.0387896 C6.24317117,11.1993546 6.18536461,11.3231216 6.06974975,11.4100943 C5.95413489,11.497067 5.71270748,11.5773483 5.34546028,11.6509406 C4.97821308,11.7245329 4.61097139,11.7613285 4.24372419,11.7613285 C3.87647699,11.7613285 3.69285615,11.6743571 3.69285615,11.5004117 L3.73366119,10.4567443 C3.76086469,9.64053881 3.77446623,8.89124665 3.77446623,8.20884533 L3.77446623,5.90073479 Z M8.32422823,13.8687338 L1.48938397,13.8687338 C1.21734901,13.8687338 0.972521216,13.942325 0.754893246,14.0895096 L0.224427722,13.1461948 C0.550869677,13.1863361 0.890908279,13.2064064 1.24455373,13.2064064 L8.32422823,13.2064064 C8.32422823,11.8549842 8.31062668,11.0789316 8.28342318,10.8782254 C10.3780924,10.9585079 11.4254113,11.1458309 11.4254113,11.4402001 C11.4254113,11.5873847 11.2417904,11.7412572 10.8745432,11.9018222 L10.8745432,13.2064064 L15.6079279,13.2064064 C15.9887769,12.5373855 16.2744093,12.0690779 16.4648338,11.8014696 C16.6552582,11.5338612 16.7912737,11.400059 16.8728842,11.400059 C17.0089017,11.400059 17.4407507,11.6944238 18.1684442,12.2831622 C18.8961377,12.8719006 19.259979,13.2833423 19.259979,13.5174996 C19.259979,13.7516569 19.0967605,13.8687338 18.7703185,13.8687338 L10.8745432,13.8687338 L10.8745432,16.3374086 L10.9153483,18.1036149 C10.9153483,18.2240387 10.8609421,18.3277353 10.7521281,18.4147081 C10.6433141,18.5016808 10.4052871,18.5919972 10.0380399,18.6856602 C9.67079272,18.7793231 9.31375219,18.8261538 8.96690761,18.8261538 C8.62006303,18.8261538 8.41603987,18.8127736 8.35483201,18.7860128 C8.29362414,18.759252 8.26302066,18.6856608 8.26302066,18.565237 L8.28342318,17.842698 C8.31062668,17.3208618 8.32422823,16.8191036 8.32422823,16.3374086 L8.32422823,13.8687338 Z M34.1334162,5.27854847 C35.2487596,3.55247456 36.0240476,1.84649687 36.4593035,0.160564212 C37.0305769,0.441552988 37.6154433,0.766023255 38.2139203,1.13398475 C38.8123972,1.50194624 39.145635,1.72606488 39.2136437,1.80634738 C39.2816525,1.88662989 39.3156563,1.94684087 39.3156563,1.98698212 C39.3156563,2.08064505 39.2476486,2.12747581 39.1116311,2.12747581 C38.8804014,2.12747581 38.5403628,2.38169993 38.0915051,2.89015581 C36.2688709,4.95074017 34.3986586,6.56974645 32.4808121,7.74722322 C32.861661,7.96130991 33.1574946,8.21218898 33.3683217,8.49986797 C33.5791488,8.78754695 33.6845608,9.08525679 33.6845608,9.3930064 C33.6845608,9.70075601 33.5757484,9.9650153 33.3581205,10.1857922 C33.1404925,10.4065691 32.9024655,10.5169559 32.6440323,10.5169559 C32.385599,10.5169559 32.1679743,10.4433647 31.9911516,10.2961801 C31.8143289,10.1489955 31.7259188,9.84459555 31.7259188,9.38297113 C31.7259188,8.92134672 31.5218957,8.42962373 31.1138432,7.90778744 L31.1138432,14.1095801 C31.1138432,14.8321227 31.120644,15.3673314 31.1342458,15.7152222 L31.1954533,16.7187486 C31.1954533,16.9328353 30.9880298,17.1201583 30.5731765,17.2807233 C30.1583231,17.4412883 29.7910815,17.5215696 29.4714404,17.5215696 C29.1517993,17.5215696 28.9715788,17.5115345 28.9307736,17.4914638 C28.8899683,17.4713932 28.869566,17.4078372 28.869566,17.3007938 L28.9103711,16.4779022 C28.9239728,15.9159247 28.9307736,15.2937446 28.9307736,14.6113433 L28.9307736,10.4768148 C28.5499246,11.2662595 27.9650582,12.0757626 27.1761569,12.9053485 C26.3872555,13.7349344 25.9520061,14.1497212 25.8703956,14.1497212 C25.8567938,14.1497212 25.849993,14.1430311 25.849993,14.1296506 C25.849993,14.0895094 25.9043992,13.9824677 26.0132132,13.8085222 C26.9517338,12.3232958 27.6250103,10.9585137 28.0330627,9.71413482 C28.4411151,8.46975596 28.6995445,7.12504413 28.8083585,5.679959 L25.7887855,5.679959 L25.7887855,6.66341479 C27.3121813,6.90426232 28.0738677,7.50637209 28.0738677,8.46976218 C28.0738677,8.80427263 27.9718562,9.08525719 27.7678299,9.31272429 C27.5638037,9.54019139 27.3427786,9.65392324 27.104748,9.65392324 C26.8667174,9.65392324 26.6796962,9.60709248 26.5436787,9.51342956 C26.4076612,9.41976663 26.3226516,9.30603478 26.2886472,9.17223061 C26.2546429,9.03842643 26.2376409,8.7842023 26.2376409,8.4095506 C26.2376409,7.68700803 26.0880239,7.21201032 25.7887855,6.98454322 L25.7887855,17.4814286 C25.7887855,17.6821348 25.5881627,17.8527326 25.1869111,17.993227 C24.7856596,18.1337214 24.4422206,18.2039675 24.1565839,18.2039675 C23.8709472,18.2039675 23.6975275,18.2006225 23.6363196,18.1939323 C23.5751117,18.1872421 23.5445083,18.1169959 23.5445083,17.9831917 L23.5853133,17.1603001 C23.5989151,16.5983226 23.6057158,15.9761425 23.6057158,15.2937412 L23.6057158,9.83455798 C23.2112651,10.8380893 22.602596,11.8248803 21.7796903,12.7949606 C20.9567845,13.7650409 20.4841309,14.2500738 20.3617151,14.2500738 C20.3209099,14.2500738 20.3005076,14.2099332 20.3005076,14.1296506 C20.3005076,14.0493681 20.348113,13.915566 20.4433252,13.7282401 C21.8715088,10.8380699 22.7420076,8.15533631 23.0548478,5.679959 L21.8306966,5.679959 C21.5586616,5.679959 21.3138338,5.75355019 21.0962058,5.90073479 L20.4229227,4.95742004 C20.7493646,4.9975613 21.0894032,5.01763162 21.4430487,5.01763162 L23.6057158,5.01763162 L23.6057158,2.30811055 C23.6057158,1.42500297 23.5853135,0.662330585 23.5445083,0.0200705265 C24.1429852,0.0334509444 24.7652558,0.113732248 25.4113389,0.260916844 C26.0574219,0.408101441 26.3804586,0.545248667 26.3804586,0.672362637 C26.3804586,0.799476607 26.1832362,0.950004051 25.7887855,1.12394948 L25.7887855,5.01763162 L26.0744208,5.01763162 C26.3600575,4.49579532 26.5538795,4.17132506 26.6558926,4.04421109 C26.7579057,3.91709712 26.8565169,3.85354109 26.9517291,3.85354109 C27.1965606,3.85354109 27.7134193,4.24156738 28.5023207,5.01763162 L28.9307736,5.01763162 L28.9307736,2.28804002 C28.9307736,1.40493244 28.9103713,0.642260059 28.869566,0 C29.3864325,0.0133804179 29.8828888,0.0602111781 30.35895,0.140493685 C30.8350112,0.220776193 31.1648486,0.297712442 31.3484722,0.37130474 C31.5320958,0.444897038 31.6239062,0.541903613 31.6239062,0.662327374 C31.6239062,0.782751135 31.4538869,0.916553307 31.1138432,1.0637379 L31.1138432,5.01763162 L31.2974659,5.01763162 C31.6511114,4.33523031 31.8653357,3.94720401 31.9401453,3.85354109 C32.0149549,3.75987816 32.0931638,3.7130474 32.1747743,3.7130474 C32.3379953,3.7130474 32.6814343,3.93382098 33.2051016,4.37537477 C33.7287689,4.81692856 34.038204,5.11798345 34.1334162,5.27854847 Z M32.2359819,7.60672954 C32.76645,7.11165408 33.3105118,6.46940365 33.8681835,5.679959 L31.1138432,5.679959 L31.1138432,7.26553059 C31.5218957,7.33243268 31.8959381,7.44616452 32.2359819,7.60672954 Z M36.908159,5.53946531 C37.4522289,5.8338345 37.9826891,6.16499488 38.4995555,6.53295637 C39.016422,6.90091786 39.3088552,7.12838156 39.3768639,7.21535427 C39.4448726,7.30232699 39.4788765,7.37257313 39.4788765,7.4260948 C39.4788765,7.54651856 39.3564626,7.60672954 39.1116311,7.60672954 C38.8667997,7.60672954 38.5403626,7.81412291 38.1323102,8.22891586 C36.8945511,9.50005556 35.660211,10.5069169 34.4292528,11.2495301 C33.1982946,11.9921433 32.4740123,12.3634443 32.2563844,12.3634443 C32.2291809,12.3634443 32.2155793,12.3567542 32.2155793,12.3433738 C32.2155793,12.3032325 32.2835871,12.2296413 32.4196045,12.122598 C34.2966458,10.5169479 35.7928156,8.32259223 36.908159,5.53946531 Z M37.2550018,10.4968854 C37.7718682,10.804635 38.271725,11.1491756 38.754587,11.5305175 C39.2374491,11.9118594 39.50948,12.1426681 39.5706878,12.2229506 C39.6318957,12.3032331 39.6624992,12.3701342 39.6624992,12.4236559 C39.6624992,12.5574601 39.5808899,12.6243612 39.4176689,12.6243612 C39.254448,12.6243612 39.1014306,12.677882 38.9586122,12.7849254 C38.8157939,12.8919687 38.6355734,13.0792918 38.4179455,13.3469001 C37.4930266,14.4708552 36.4083034,15.4241957 35.1637435,16.2069501 C33.9191835,16.9897046 32.6848434,17.5817792 31.4606861,17.9831917 C30.2365288,18.3846043 29.5360492,18.5853075 29.3592265,18.5853075 C29.3184213,18.5853075 29.2980189,18.5786174 29.2980189,18.565237 C29.2980189,18.5250957 29.3660267,18.4715749 29.5020442,18.4046728 C33.1201091,16.7588814 35.7044025,14.1229786 37.2550018,10.4968854 Z M50.047382,0.120423159 C50.8634868,0.120423159 51.4891579,0.250880277 51.9244138,0.511798425 C52.3596697,0.772716574 52.5772945,1.1440176 52.5772945,1.62571265 C52.5772945,1.97360351 52.4276775,2.29807378 52.128439,2.59913318 C51.8292005,2.90019258 51.5401677,3.05072003 51.2613319,3.05072003 C50.9824961,3.05072003 50.7546702,3.00723432 50.5778475,2.9202616 C50.4010248,2.83328889 50.2650093,2.71955704 50.1697971,2.57906265 C50.0745848,2.43856827 50.0269794,2.29473093 50.0269794,2.14754633 L50.047382,1.7461358 C50.047382,1.10387575 49.8705619,0.722539556 49.5169164,0.602115795 C49.2584832,0.495072452 49.1292685,0.388030714 49.1292685,0.280987371 C49.1292685,0.173944028 49.4353033,0.120423159 50.047382,0.120423159 Z M46.4973434,3.15107266 L54.7195591,3.15107266 C55.100408,2.46867135 55.338435,2.03046923 55.4336473,1.83645317 C55.5288595,1.64243711 55.6512734,1.54543054 55.8008926,1.54543054 C55.9505119,1.54543054 56.2429451,1.71937336 56.678201,2.06726423 L57.8819497,3.01057897 C58.2219934,3.29156775 58.3920127,3.49561606 58.3920127,3.62273003 C58.3920127,3.749844 58.2491965,3.81340003 57.9635598,3.81340003 L52.2712566,3.81340003 C52.1896462,3.97396505 52.0808338,4.08100679 51.9448163,4.13452846 L51.9448163,5.49932426 L53.8830557,5.49932426 C54.2911082,4.80354253 54.5393364,4.3954459 54.6277477,4.27502214 C54.7161591,4.15459838 54.8317722,4.0943874 54.9745906,4.0943874 C55.1174089,4.0943874 55.5458576,4.36199175 56.2599493,4.89720846 C56.9740411,5.43242518 57.3310816,5.77696577 57.3310816,5.93084058 C57.3310816,6.08471538 57.1882654,6.16165163 56.9026287,6.16165163 L51.9448163,6.16165163 L51.9448163,7.88771691 L53.9238608,7.88771691 C54.0598783,7.63348897 54.2128956,7.37591979 54.3829175,7.11500164 C54.5529393,6.85408349 54.6651521,6.70021099 54.7195591,6.65337953 C54.7739661,6.60654807 54.8419738,6.58313269 54.9235843,6.58313269 C55.100407,6.58313269 55.5458576,6.84070187 56.2599493,7.35584796 C56.9740411,7.87099405 57.3310816,8.19880937 57.3310816,8.33930376 C57.3310816,8.47979814 57.1882654,8.55004428 56.9026287,8.55004428 L51.9448163,8.55004428 L51.9448163,10.215898 L55.148012,10.215898 C55.4064452,9.76096377 55.6274703,9.39635286 55.8110939,9.12205429 C55.9947175,8.84775572 56.1341333,8.7106085 56.2293456,8.7106085 C56.3789648,8.7106085 56.6645972,8.86448099 57.0862514,9.17223061 L58.2695976,10.0754043 C58.6368448,10.3563931 58.8204656,10.5604414 58.8204656,10.6875554 C58.8204656,10.8146693 58.6844502,10.8782254 58.4124152,10.8782254 L50.557445,10.8782254 C51.3055411,11.0387904 51.7305894,11.1558673 51.8326025,11.2294596 C51.9346156,11.3030519 51.9856214,11.3799881 51.9856214,11.4602706 C51.9856214,11.6342161 51.8292036,11.7345677 51.5163634,11.7613285 L51.5163634,12.503938 L56.5761884,12.503938 C56.6714006,12.3299926 56.8516211,12.049008 57.1168552,11.6609759 C57.3820893,11.2729438 57.5453078,11.0588603 57.6065157,11.018719 C57.6677235,10.9785778 57.7255301,10.9585075 57.7799371,10.9585075 C57.9023528,10.9585075 58.3206003,11.2495272 59.0346921,11.8315754 C59.7487839,12.4136235 60.1058244,12.7815795 60.1058244,12.9354543 C60.1058244,13.0893291 59.9698089,13.1662654 59.697774,13.1662654 L52.1488415,13.1662654 C52.9241412,13.7683842 53.5770153,14.2065863 54.1074835,14.4808849 C54.6379516,14.7551834 55.2602223,14.9558867 55.9743141,15.0830007 C56.6884058,15.2101146 57.7799297,15.3405717 59.2489185,15.4743759 C59.4801483,15.5011368 59.5957614,15.5379324 59.5957614,15.5847638 C59.5957614,15.6315953 59.4699471,15.7118766 59.2183148,15.8256101 C58.9666824,15.9393437 58.7048527,16.1500821 58.4328177,16.4578317 C58.1607828,16.7655813 57.9567596,17.1201571 57.8207421,17.5215696 C57.7527334,17.7222759 57.6371203,17.8226275 57.4738993,17.8226275 C57.3106783,17.8226275 56.6816069,17.5985089 55.5866662,17.1502649 C54.4917255,16.7020209 53.6586309,16.1969177 53.0873575,15.6349401 C52.516084,15.0729626 51.9924246,14.2567693 51.5163634,13.1863359 L51.5163634,16.2571265 C51.5163634,16.7789628 51.5231642,17.1402286 51.5367659,17.3409349 L51.5571684,17.8828391 C51.5571684,18.0300237 51.4925611,18.1504457 51.3633445,18.2441086 C51.2341279,18.3377715 50.9893001,18.4381231 50.6288538,18.5451665 C50.2684075,18.6522098 49.9113669,18.7057307 49.5577215,18.7057307 C49.204076,18.7057307 49.0272559,18.6053791 49.0272559,18.4046728 L49.068061,17.6018517 C49.0816627,17.2405804 49.0884635,16.8057234 49.0884635,16.2972675 L49.0884635,13.989157 C48.3811726,14.6849387 47.6296873,15.2736682 46.833985,15.7553633 C46.0382828,16.2370583 44.9501592,16.7388165 43.5695818,17.2606528 C42.1890044,17.7824891 41.3967144,18.0434033 41.1926882,18.0434033 C41.151883,18.0434033 41.1314806,18.0367132 41.1314806,18.0233328 C41.1314806,17.9831915 41.2878984,17.8694597 41.6007386,17.6821338 C43.0153204,16.8659283 44.1034439,16.1333615 44.8651418,15.4844112 C45.6268397,14.8354609 46.3409208,14.0627534 47.0074064,13.1662654 L41.8863739,13.1662654 C41.6143389,13.1662654 41.3695111,13.2398566 41.1518832,13.3870412 L40.6214176,12.4437264 C40.9478596,12.4838677 41.2878982,12.503938 41.6415436,12.503938 L49.0884635,12.503938 C49.0884635,11.6743521 49.0816627,11.1324533 49.068061,10.8782254 L46.3137208,10.8782254 C46.3273225,11.2261162 46.1062974,11.4669601 45.6506389,11.6007643 C45.1949803,11.7345685 44.8141371,11.8014696 44.5080977,11.8014696 C44.2020584,11.8014696 44.049041,11.6944278 44.049041,11.4803412 L44.1102486,9.19230113 L44.1102486,5.19826636 C43.5389752,5.74686349 42.8758999,6.27872713 42.1210029,6.79387322 C41.3661058,7.30901931 40.9410576,7.56658849 40.8458454,7.56658849 C40.8322436,7.56658849 40.8254428,7.55989838 40.8254428,7.54651796 C40.8254428,7.49299629 40.9478567,7.33912379 41.1926882,7.08489585 C42.933712,5.2517786 44.1782532,2.93031092 44.9263494,0.120423159 C46.6129662,0.535216114 47.571875,0.796130349 47.8031047,0.903173692 C48.0343345,1.01021704 48.1499476,1.12729394 48.1499476,1.25440791 C48.1499476,1.38152188 48.0615375,1.45845812 47.8847148,1.48521896 C47.7078921,1.5119798 47.5344724,1.5922611 47.3644506,1.72606528 C47.1944287,1.85986946 46.9836048,2.07395293 46.7319724,2.36832213 C46.4803401,2.66269132 46.3205219,2.84332425 46.2525132,2.91022634 C46.3613272,2.99050885 46.4429365,3.07079015 46.4973434,3.15107266 Z M49.5985265,3.81340003 L46.4769409,3.81340003 C46.4089322,3.85354129 46.354526,3.88030172 46.3137208,3.89368214 L46.3137208,5.49932426 L49.5985265,5.49932426 L49.5985265,3.81340003 Z M49.5985265,6.16165163 L46.3137208,6.16165163 L46.3137208,7.88771691 L49.5985265,7.88771691 L49.5985265,6.16165163 Z M49.5985265,10.215898 L49.5985265,8.55004428 L46.3137208,8.55004428 L46.3137208,10.215898 L49.5985265,10.215898 Z M65.1452469,1.42500738 L75.7749599,1.42500738 C76.0197913,0.943312336 76.2204141,0.592081635 76.3768342,0.37130474 C76.5332543,0.150527845 76.6692698,0.040141053 76.7848846,0.040141053 C76.9004995,0.040141053 77.2745419,0.224119039 77.9070232,0.592080531 C78.5395045,0.960042023 78.9985566,1.25106175 79.2841933,1.46514843 C79.5698301,1.67923512 79.7126463,1.86321311 79.7126463,2.01708791 C79.7126463,2.17096272 79.4338146,2.34156049 78.8761429,2.52888634 L78.8761429,15.7754338 C78.8761429,16.4043135 78.8829437,16.8391705 78.8965455,17.080018 L78.916948,17.7624159 C78.916948,17.9765026 78.6993233,18.1604806 78.2640673,18.3143554 C77.8288114,18.4682302 77.4343666,18.5451665 77.0807212,18.5451665 C76.7270757,18.5451665 76.5128514,18.5117159 76.4380418,18.4448138 C76.3632322,18.3779118 76.3258279,18.2173491 76.3258279,17.9631212 L76.3258279,17.3810759 L64.8392091,17.3810759 L64.8392091,17.9029096 C64.8392091,18.1571376 64.6079828,18.3544958 64.1455234,18.4949902 C63.6830639,18.6354845 63.1662053,18.7057307 62.5949318,18.7057307 C62.4045074,18.7057307 62.3228981,18.5986889 62.3501016,18.3846023 C62.4453138,17.2740276 62.4929192,16.4176937 62.4929192,15.8155749 L62.4929192,2.36832213 C62.4929192,1.69930123 62.4793177,1.10388157 62.4521142,0.582045268 C63.2954226,0.796131954 64.1931245,1.07711652 65.1452469,1.42500738 Z M73.2858524,6.18172216 L73.4898776,6.18172216 L74.1631608,5.05777268 C74.2991783,4.83030557 74.4283929,4.71657372 74.5508087,4.71657372 C74.6732244,4.71657372 74.9384545,4.89051655 75.3465069,5.23840741 C75.7545594,5.58629828 76.0809965,5.90073338 76.3258279,6.18172216 L76.3258279,2.08733475 L65.1248443,2.08733475 C65.0840391,2.23451935 64.9888283,2.34156109 64.8392091,2.40846318 L64.8392091,14.0895096 C66.7298521,12.0289252 68.0764049,9.61379604 68.8789081,6.84404953 L66.1857754,6.84404953 C65.9137404,6.84404953 65.6689126,6.91764073 65.4512847,7.06482532 L64.9208191,6.12151058 C65.2472611,6.16165183 65.5872997,6.18172216 65.9409452,6.18172216 L70.6539273,6.18172216 L70.6539273,4.13452846 C70.6539273,3.46550756 70.6403258,2.8700879 70.6131223,2.3482516 C71.5924481,2.41515369 72.2997284,2.47870972 72.7349844,2.5389216 C73.1702403,2.59913348 73.4524723,2.66268951 73.581689,2.7295916 C73.7109056,2.79649369 73.7755129,2.876775 73.7755129,2.97043792 C73.7755129,3.14438335 73.6122944,3.27149542 73.2858524,3.35177792 L73.2858524,6.18172216 Z M76.3258279,6.84404953 L73.2858524,6.84404953 L73.2858524,13.4673233 C73.2858524,14.0293008 73.2348466,14.4675029 73.1328335,14.7819428 C73.0308204,15.0963826 72.8437992,15.3472617 72.5717642,15.5345875 C72.2997292,15.7219134 71.8576791,15.885821 71.2456004,16.0263154 C70.6335217,16.1668098 70.2186746,16.2370559 70.0010467,16.2370559 C69.7834187,16.2370559 69.6406025,16.2002603 69.5725937,16.126668 C69.504585,16.0530757 69.4569796,15.8724428 69.4297761,15.5847638 C69.4025726,15.2970848 69.2869595,15.0562409 69.0829333,14.8622249 C68.878907,14.6682088 68.596675,14.5109913 68.2362287,14.3905675 C67.8757823,14.2701437 67.6955619,14.1798273 67.6955619,14.1196154 C67.6955619,14.0594035 67.8451789,14.0226079 68.1444173,14.0092275 C68.974124,13.9958471 69.5487892,13.9523614 69.8684303,13.8787691 C70.1880714,13.8051768 70.3988953,13.6513043 70.5009084,13.417147 C70.6029215,13.1829896 70.6539273,12.771548 70.6539273,12.1828096 L70.6539273,9.0919485 C69.9602382,10.3095665 69.1645478,11.3565685 68.2668325,12.2329859 C67.3691171,13.1094033 66.2265874,13.9423218 64.8392091,14.7317664 L64.8392091,16.7187486 L76.3258279,16.7187486 L76.3258279,6.84404953 Z"></path>
                    </g>
                </g>
            </g>
        </g>
    </g>
</svg>