<?xml version="1.0" encoding="UTF-8"?>
<svg width="11px" height="19px" viewBox="0 0 11 19" version="1.1" xmlns="http://www.w3.org/2000/svg" xmlns:xlink="http://www.w3.org/1999/xlink">
    <!-- Generator: Sketch 47.1 (45422) - http://www.bohemiancoding.com/sketch -->
    <title>返回箭头</title>
    <desc>Created with Sketch.</desc>
    <defs></defs>
    <g id="Symbols" stroke="none" stroke-width="1" fill="none" fill-rule="evenodd">
        <g id="一级标题/主题页" transform="translate(-14.000000, -39.000000)" fill-rule="nonzero" fill="#FFFFFF">
            <g id="返回箭头" transform="translate(14.000000, 39.000000)">
                <path d="M0.162697008,8.98907347 C0.150454649,9.01375925 0.128992736,9.03534979 0.119798371,9.06003557 C-0.0946696247,9.51057004 -0.0242130844,10.0660127 0.355703091,10.4270644 L9.0141494,18.6755138 C9.48598403,19.1260483 10.2305008,19.1044577 10.6778256,18.6292375 C11.1251503,18.1540173 11.1037136,17.4041582 10.6318789,16.9536237 L2.86193569,9.55068126 L10.6012227,2.03973532 C11.0699841,1.58608024 11.0822516,0.836246573 10.6318537,0.364121562 C10.4020702,0.123428888 10.0926106,2.53707889e-05 9.78622411,0 C9.49210521,0 9.19796112,0.111073314 8.97125077,0.333296054 L0.392455358,8.66196789 C0.377139814,8.67739333 0.371018635,8.70207911 0.352629906,8.71750455 C0.340362357,8.72986012 0.328119998,8.73909509 0.312804454,8.75145066 C0.242347913,8.82241276 0.20864364,8.90882567 0.162697008,8.9890481 L0.162697008,8.9890481 L0.162697008,8.98907347 Z" id="Shape"></path>
            </g>
        </g>
    </g>
</svg>