<?xml version="1.0" encoding="UTF-8"?>
<svg width="24px" height="6px" viewBox="0 0 24 6" version="1.1" xmlns="http://www.w3.org/2000/svg" xmlns:xlink="http://www.w3.org/1999/xlink">
    <!-- Generator: Sketch 47.1 (45422) - http://www.bohemiancoding.com/sketch -->
    <title>点点icon</title>
    <desc>Created with Sketch.</desc>
    <defs></defs>
    <g id="Symbols" stroke="none" stroke-width="1" fill="none" fill-rule="evenodd">
        <g id="一级标题/主页" transform="translate(-333.000000, -44.000000)" fill="#FFFFFF">
            <path d="M345,40.5 C346.375,40.5 347.5,39.375 347.5,38 C347.5,36.625 346.375,35.5 345,35.5 C343.625,35.5 342.5,36.625 342.5,38 C342.5,39.375 343.625,40.5 345,40.5 L345,40.5 Z M345,44.5 C343.625,44.5 342.5,45.625 342.5,47 C342.5,48.375 343.625,49.5 345,49.5 C346.375,49.5 347.5,48.375 347.5,47 C347.5,45.625 346.375,44.5 345,44.5 L345,44.5 Z M345,53.5 C343.625,53.5 342.5,54.625 342.5,56 C342.5,57.375 343.625,58.5 345,58.5 C346.375,58.5 347.5,57.375 347.5,56 C347.5,54.625 346.375,53.5 345,53.5 L345,53.5 Z" id="点点icon" transform="translate(345.000000, 47.000000) rotate(90.000000) translate(-345.000000, -47.000000) "></path>
        </g>
    </g>
</svg>