<?xml version="1.0" encoding="UTF-8"?>
<svg width="18px" height="12px" viewBox="0 0 18 12" version="1.1" xmlns="http://www.w3.org/2000/svg" xmlns:xlink="http://www.w3.org/1999/xlink">
    <!-- Generator: Sketch 47.1 (45422) - http://www.bohemiancoding.com/sketch -->
    <title>评论</title>
    <desc>Created with Sketch.</desc>
    <defs></defs>
    <g id="主页" stroke="none" stroke-width="1" fill="none" fill-rule="evenodd">
        <g id="iPad-Pro-竖-Copy" transform="translate(-979.000000, -243.000000)" fill-rule="nonzero" fill="#768AA5">
            <g id="Group-2-Copy-4" transform="translate(10.000000, 86.000000)">
                <g id="Group" transform="translate(0.000000, 66.000000)">
                    <g id="Group-6" transform="translate(930.000000, 89.000000)">
                        <path d="M41.5790682,4.56302069 L41.5790682,3 L41.5790682,3 C41.5790682,2.44771525 42.0267834,2 42.5790682,2 L56.0012859,2 L56.0012859,2 C56.5535706,2 57.0012859,2.44771525 57.0012859,3 L57.0012859,13 L57.0012859,13 C57.0012859,13.5522847 56.5535706,14 56.0012859,14 L42.5790682,14 L42.5790682,14 C42.0267834,14 41.5790682,13.5522847 41.5790682,13 L41.5790682,11.934147 L41.5790682,11.934147 C41.5790682,11.6891402 41.4891218,11.4526589 41.326299,11.2695824 L39.2527692,8.93812303 L39.2527692,8.93812303 C38.9183979,8.56215871 38.9154334,7.9963067 39.2458472,7.61685957 L41.3332211,5.21971955 L41.3332211,5.21971955 C41.4917468,5.03766862 41.5790682,4.80441859 41.5790682,4.56302069 Z M51.9435003,9.82203527 C52.879862,9.82203527 53.6282352,9.0105161 53.6282352,7.99902928 C53.6282352,6.98754247 52.8780717,6.17796473 51.9435003,6.1760233 C51.0107193,6.1760233 50.256975,6.9894839 50.256975,7.99902928 C50.256975,9.00857466 51.0107193,9.82203527 51.9435003,9.82203527 Z M46.6458056,9.82203527 C47.5821673,9.82203527 48.3269598,9.01245753 48.3269598,7.99902928 C48.3269598,6.98560104 47.5785866,6.17796473 46.6422249,6.17796473 C45.7112342,6.17990616 44.9539092,6.99724964 44.9556995,8.00097072 C44.9574899,9.00663323 45.714815,9.82203527 46.6458056,9.82203527 Z" id="评论"></path>
                    </g>
                </g>
            </g>
        </g>
    </g>
</svg>