<?xml version="1.0" encoding="UTF-8"?>
<svg width="18px" height="12px" viewBox="0 0 18 12" version="1.1" xmlns="http://www.w3.org/2000/svg" xmlns:xlink="http://www.w3.org/1999/xlink">
    <!-- Generator: Sketch 47.1 (45422) - http://www.bohemiancoding.com/sketch -->
    <title>有消息</title>
    <desc>Created with Sketch.</desc>
    <defs></defs>
    <g id="主页" stroke="none" stroke-width="1" fill="none" fill-rule="evenodd">
        <g id="iPad-Pro-竖-Copy-3" transform="translate(-966.000000, -280.000000)" fill-rule="nonzero" fill="#4A8EDD">
            <g id="Group-2-Copy-4" transform="translate(10.000000, 86.000000)">
                <g id="Group-Copy-2" transform="translate(905.000000, 191.000000)">
                    <g id="Group-6">
                        <path d="M53.5777823,5.56302069 L53.5777823,4 L53.5777823,4 C53.5777823,3.44771525 54.0254976,3 54.5777823,3 L68,3 L68,3 C68.5522847,3 69,3.44771525 69,4 L69,14 L69,14 C69,14.5522847 68.5522847,15 68,15 L54.5777823,15 L54.5777823,15 C54.0254976,15 53.5777823,14.5522847 53.5777823,14 L53.5777823,12.934147 L53.5777823,12.934147 C53.5777823,12.6891402 53.4878359,12.4526589 53.3250131,12.2695824 L51.2514834,9.93812303 L51.2514834,9.93812303 C50.917112,9.56215871 50.9141475,8.9963067 51.2445613,8.61685957 L53.3319352,6.21971955 L53.3319352,6.21971955 C53.4904609,6.03766862 53.5777823,5.80441859 53.5777823,5.56302069 Z M63.9422144,10.8220353 C64.8785761,10.8220353 65.6269494,10.0105161 65.6269494,8.99902928 C65.6269494,7.98754247 64.8767858,7.17796473 63.9422144,7.1760233 C63.0094334,7.1760233 62.2556891,7.9894839 62.2556891,8.99902928 C62.2556891,10.0085747 63.0094334,10.8220353 63.9422144,10.8220353 Z M58.6445197,10.8220353 C59.5808814,10.8220353 60.3256739,10.0124575 60.3256739,8.99902928 C60.3256739,7.98560104 59.5773007,7.17796473 58.640939,7.17796473 C57.7099484,7.17990616 56.9526233,7.99724964 56.9544137,9.00097072 C56.956204,10.0066332 57.7135291,10.8220353 58.6445197,10.8220353 Z" id="有消息"></path>
                    </g>
                </g>
            </g>
        </g>
    </g>
</svg>