<?xml version="1.0" encoding="UTF-8"?>
<svg width="15px" height="15px" viewBox="0 0 15 15" version="1.1" xmlns="http://www.w3.org/2000/svg" xmlns:xlink="http://www.w3.org/1999/xlink">
    <!-- Generator: Sketch 47.1 (45422) - http://www.bohemiancoding.com/sketch -->
    <title>未点赞</title>
    <desc>Created with Sketch.</desc>
    <defs></defs>
    <g id="主页" stroke="none" stroke-width="1" fill="none" fill-rule="evenodd">
        <g id="iPad-Pro-竖-Copy" transform="translate(-940.000000, -241.000000)" fill-rule="nonzero" fill="#768AA5">
            <g id="Group-2-Copy-4" transform="translate(10.000000, 86.000000)">
                <g id="Group" transform="translate(0.000000, 66.000000)">
                    <g id="Group-6" transform="translate(930.000000, 89.000000)">
                        <path d="M3,6.00100265 L1,6.00100265 C0,6.00100265 0,6.5871527 0,7.00100265 L0.552849963,13.0010027 C0.652346328,14.0010027 1.21538462,15.0010027 1,15.0010027 L4,15.0010027 C4,15.0010027 4,12.334336 4,7.00100265 C3.75384616,6.00100265 3.15384616,6.00100265 3,6.00100265 Z M10,6.00100265 C11.4379562,-0.239762817 8.90510948,0.00227416435 9,0.00100265282 C7.7591241,0.00227416435 7.98540148,0.955294727 8,1.00100265 C7.98540146,4.05639341 5,5.84141606 5,6.00100265 L5,14.0010027 C5,14.6455108 6.03649636,15.0010027 6,15.0010027 L12,15.0010027 C13.0437956,15.0010027 13.5036496,13.4504533 14,13.0010027 C15,7.97436686 15,6.90032782 15,7.00100265 C14.9927007,5.83385241 13.9635036,5.9548709 14,6.00100265 L10,6.00100265 Z" id="未点赞"></path>
                    </g>
                </g>
            </g>
        </g>
    </g>
</svg>