<?xml version="1.0" encoding="UTF-8"?>
<svg width="15px" height="15px" viewBox="0 0 15 15" version="1.1" xmlns="http://www.w3.org/2000/svg" xmlns:xlink="http://www.w3.org/1999/xlink">
    <!-- Generator: Sketch 47.1 (45422) - http://www.bohemiancoding.com/sketch -->
    <title>已点赞</title>
    <desc>Created with Sketch.</desc>
    <defs></defs>
    <g id="主页" stroke="none" stroke-width="1" fill="none" fill-rule="evenodd">
        <g id="iPad-Pro-竖-Copy-3" transform="translate(-915.000000, -278.000000)" fill-rule="nonzero" fill="#EC7E39">
            <g id="Group-2-Copy-4" transform="translate(10.000000, 86.000000)">
                <g id="Group-Copy-2" transform="translate(905.000000, 191.000000)">
                    <g id="Group-6">
                        <g id="Group-3" transform="translate(-0.000000, 0.000000)">
                            <path d="M3,7 L1,7 C0,7 0,7.58615004 0,8 L0.552849963,14 C0.652346328,15 1.21538462,16 1,16 L4,16 C4,16 4,13.3333333 4,8 C3.75384616,7 3.15384616,7 3,7 Z M10,7 C11.4379562,0.759234531 8.90510948,1.00127151 9,1 C7.7591241,1.00127151 7.98540148,1.95429207 8,2 C7.98540146,5.05539076 5,6.8404134 5,7 L5,15 C5,15.6445082 6.03649636,16 6,16 L12,16 C13.0437956,16 13.5036496,14.4494507 14,14 C15,8.97336421 15,7.89932516 15,8 C14.9927007,6.83284976 13.9635036,6.95386824 14,7 L10,7 Z" id="已点赞"></path>
                        </g>
                    </g>
                </g>
            </g>
        </g>
    </g>
</svg>